<mxfile host="app.diagrams.net" modified="2024-06-14T19:47:31.183Z" agent="Mozilla/5.0 (Windows NT 10.0; Win64; x64; rv:127.0) Gecko/20100101 Firefox/127.0" etag="9PMxIQ4Muogplb67WTIL" version="24.5.4" type="github">
  <diagram name="Page-1" id="GISTRxogogpx8yDHISPY">
    <mxGraphModel dx="1434" dy="746" grid="1" gridSize="10" guides="1" tooltips="1" connect="1" arrows="1" fold="1" page="1" pageScale="1" pageWidth="850" pageHeight="1100" math="0" shadow="0">
      <root>
        <mxCell id="0" />
        <mxCell id="1" parent="0" />
        <mxCell id="qLUTxdZjefEvBJyTX5au-4" value="" style="edgeStyle=orthogonalEdgeStyle;rounded=0;orthogonalLoop=1;jettySize=auto;html=1;" parent="1" source="qLUTxdZjefEvBJyTX5au-2" target="qLUTxdZjefEvBJyTX5au-3" edge="1">
          <mxGeometry relative="1" as="geometry" />
        </mxCell>
        <mxCell id="qLUTxdZjefEvBJyTX5au-2" value="Csv Creation QueueMessage" style="shape=tape;whiteSpace=wrap;html=1;strokeWidth=2;size=0.19" parent="1" vertex="1">
          <mxGeometry x="60" y="60" width="120" height="70" as="geometry" />
        </mxCell>
        <mxCell id="qLUTxdZjefEvBJyTX5au-7" value="" style="edgeStyle=orthogonalEdgeStyle;rounded=0;orthogonalLoop=1;jettySize=auto;html=1;" parent="1" source="qLUTxdZjefEvBJyTX5au-3" target="qLUTxdZjefEvBJyTX5au-6" edge="1">
          <mxGeometry relative="1" as="geometry" />
        </mxCell>
        <mxCell id="qLUTxdZjefEvBJyTX5au-9" value="" style="edgeStyle=orthogonalEdgeStyle;rounded=0;orthogonalLoop=1;jettySize=auto;html=1;" parent="1" source="qLUTxdZjefEvBJyTX5au-3" target="qLUTxdZjefEvBJyTX5au-8" edge="1">
          <mxGeometry relative="1" as="geometry" />
        </mxCell>
        <mxCell id="qLUTxdZjefEvBJyTX5au-3" value="Pull Data Series Into Memory" style="whiteSpace=wrap;html=1;strokeWidth=2;" parent="1" vertex="1">
          <mxGeometry x="260" y="65" width="120" height="60" as="geometry" />
        </mxCell>
        <mxCell id="qLUTxdZjefEvBJyTX5au-15" value="" style="edgeStyle=orthogonalEdgeStyle;rounded=0;orthogonalLoop=1;jettySize=auto;html=1;" parent="1" source="qLUTxdZjefEvBJyTX5au-6" target="qLUTxdZjefEvBJyTX5au-14" edge="1">
          <mxGeometry relative="1" as="geometry" />
        </mxCell>
        <mxCell id="qLUTxdZjefEvBJyTX5au-6" value="Pull Data Series Into Memory" style="whiteSpace=wrap;html=1;strokeWidth=2;" parent="1" vertex="1">
          <mxGeometry x="460" y="65" width="120" height="60" as="geometry" />
        </mxCell>
        <mxCell id="qLUTxdZjefEvBJyTX5au-11" value="" style="edgeStyle=orthogonalEdgeStyle;rounded=0;orthogonalLoop=1;jettySize=auto;html=1;" parent="1" source="qLUTxdZjefEvBJyTX5au-8" target="qLUTxdZjefEvBJyTX5au-10" edge="1">
          <mxGeometry relative="1" as="geometry" />
        </mxCell>
        <mxCell id="5lSr_2UKApsCVff0iDx0-2" style="edgeStyle=orthogonalEdgeStyle;rounded=0;orthogonalLoop=1;jettySize=auto;html=1;entryX=0;entryY=0.5;entryDx=0;entryDy=0;" edge="1" parent="1" source="qLUTxdZjefEvBJyTX5au-8" target="5lSr_2UKApsCVff0iDx0-1">
          <mxGeometry relative="1" as="geometry" />
        </mxCell>
        <mxCell id="qLUTxdZjefEvBJyTX5au-8" value="Create Blobs" style="whiteSpace=wrap;html=1;strokeWidth=2;" parent="1" vertex="1">
          <mxGeometry x="260" y="205" width="120" height="60" as="geometry" />
        </mxCell>
        <mxCell id="qLUTxdZjefEvBJyTX5au-13" value="" style="edgeStyle=orthogonalEdgeStyle;rounded=0;orthogonalLoop=1;jettySize=auto;html=1;" parent="1" source="qLUTxdZjefEvBJyTX5au-10" target="qLUTxdZjefEvBJyTX5au-12" edge="1">
          <mxGeometry relative="1" as="geometry" />
        </mxCell>
        <mxCell id="5lSr_2UKApsCVff0iDx0-3" style="edgeStyle=orthogonalEdgeStyle;rounded=0;orthogonalLoop=1;jettySize=auto;html=1;entryX=0;entryY=0.5;entryDx=0;entryDy=0;" edge="1" parent="1" source="qLUTxdZjefEvBJyTX5au-10" target="5lSr_2UKApsCVff0iDx0-1">
          <mxGeometry relative="1" as="geometry" />
        </mxCell>
        <mxCell id="qLUTxdZjefEvBJyTX5au-10" value="Create Phase Summary" style="whiteSpace=wrap;html=1;strokeWidth=2;" parent="1" vertex="1">
          <mxGeometry x="260" y="345" width="120" height="60" as="geometry" />
        </mxCell>
        <mxCell id="5lSr_2UKApsCVff0iDx0-9" value="" style="edgeStyle=orthogonalEdgeStyle;rounded=0;orthogonalLoop=1;jettySize=auto;html=1;" edge="1" parent="1" source="qLUTxdZjefEvBJyTX5au-12" target="5lSr_2UKApsCVff0iDx0-8">
          <mxGeometry relative="1" as="geometry" />
        </mxCell>
        <mxCell id="qLUTxdZjefEvBJyTX5au-12" value="Create Summary Statistics" style="whiteSpace=wrap;html=1;strokeWidth=2;" parent="1" vertex="1">
          <mxGeometry x="260" y="485" width="120" height="60" as="geometry" />
        </mxCell>
        <mxCell id="qLUTxdZjefEvBJyTX5au-18" value="" style="edgeStyle=orthogonalEdgeStyle;rounded=0;orthogonalLoop=1;jettySize=auto;html=1;exitX=0.75;exitY=1;exitDx=0;exitDy=0;" parent="1" source="qLUTxdZjefEvBJyTX5au-14" target="qLUTxdZjefEvBJyTX5au-16" edge="1">
          <mxGeometry relative="1" as="geometry" />
        </mxCell>
        <mxCell id="qLUTxdZjefEvBJyTX5au-21" value="" style="edgeStyle=orthogonalEdgeStyle;rounded=0;orthogonalLoop=1;jettySize=auto;html=1;" parent="1" source="qLUTxdZjefEvBJyTX5au-14" target="qLUTxdZjefEvBJyTX5au-20" edge="1">
          <mxGeometry relative="1" as="geometry" />
        </mxCell>
        <mxCell id="qLUTxdZjefEvBJyTX5au-14" value="Calculate Custom Alert Results" style="whiteSpace=wrap;html=1;strokeWidth=2;" parent="1" vertex="1">
          <mxGeometry x="660" y="65" width="120" height="60" as="geometry" />
        </mxCell>
        <mxCell id="qLUTxdZjefEvBJyTX5au-16" value="Send Alert if Persistence 1" style="whiteSpace=wrap;html=1;strokeWidth=2;" parent="1" vertex="1">
          <mxGeometry x="720" y="260" width="120" height="60" as="geometry" />
        </mxCell>
        <mxCell id="qLUTxdZjefEvBJyTX5au-20" value="Store Results to Cosmos" style="whiteSpace=wrap;html=1;strokeWidth=2;" parent="1" vertex="1">
          <mxGeometry x="580" y="260" width="120" height="60" as="geometry" />
        </mxCell>
        <mxCell id="5lSr_2UKApsCVff0iDx0-1" value="API - Full Flight Plotting" style="rounded=1;whiteSpace=wrap;html=1;" vertex="1" parent="1">
          <mxGeometry x="690" y="510" width="120" height="60" as="geometry" />
        </mxCell>
        <mxCell id="5lSr_2UKApsCVff0iDx0-7" value="" style="edgeStyle=orthogonalEdgeStyle;rounded=0;orthogonalLoop=1;jettySize=auto;html=1;" edge="1" parent="1" source="5lSr_2UKApsCVff0iDx0-5" target="5lSr_2UKApsCVff0iDx0-6">
          <mxGeometry relative="1" as="geometry" />
        </mxCell>
        <mxCell id="5lSr_2UKApsCVff0iDx0-5" value="Timer Trigger Custom Alert Persistence Evaluation" style="whiteSpace=wrap;html=1;strokeWidth=2;" vertex="1" parent="1">
          <mxGeometry x="580" y="370" width="120" height="60" as="geometry" />
        </mxCell>
        <mxCell id="5lSr_2UKApsCVff0iDx0-6" value="Send Alert" style="whiteSpace=wrap;html=1;strokeWidth=2;" vertex="1" parent="1">
          <mxGeometry x="720" y="370" width="120" height="60" as="geometry" />
        </mxCell>
        <mxCell id="5lSr_2UKApsCVff0iDx0-8" value="Save Flight to SQL" style="whiteSpace=wrap;html=1;strokeWidth=2;" vertex="1" parent="1">
          <mxGeometry x="260" y="625" width="120" height="60" as="geometry" />
        </mxCell>
      </root>
    </mxGraphModel>
  </diagram>
</mxfile>
